<svg width="40" height="42" fill="none" xmlns="http://www.w3.org/2000/svg"><g clip-path="url(#clip0_1_3)" filter="url(#filter0_d_1_3)"><path d="M17.67 7.438a3.98 3.98 0 002.147-.627 3.753 3.753 0 001.423-1.67c.293-.679.37-1.426.22-2.148a3.678 3.678 0 00-1.058-1.904A3.914 3.914 0 0018.423.071a4.007 4.007 0 00-2.233.212 3.837 3.837 0 00-1.735 1.37 3.62 3.62 0 00-.65 2.066 3.65 3.65 0 001.131 2.63 3.944 3.944 0 002.733 1.088zM29.816 29.75H5.522c-.293 0-.574.112-.781.311-.207.2-.324.47-.324.752v2.125c0 .281.117.551.324.75.207.2.488.312.78.312h24.296c.293 0 .574-.112.78-.311.208-.2.324-.47.324-.752v-2.124c0-.282-.116-.552-.323-.752a1.127 1.127 0 00-.781-.311zm5.03-17.52l-1.968-1.058c-.514-.332-1.167-.163-1.539.311-.37.476-.872.843-1.448 1.057a3.407 3.407 0 01-1.812.154c-1.597-.285-2.68-1.742-2.68-3.304a.873.873 0 00-.271-.63.944.944 0 00-.654-.26h-2.676c-.414 0-.802.266-.888.658a3.171 3.171 0 01-1.154 1.819c-.59.46-1.328.712-2.088.712s-1.497-.252-2.087-.713a3.17 3.17 0 01-1.155-1.818c-.086-.393-.47-.658-.887-.658h-2.676a.944.944 0 00-.654.26.873.873 0 00-.271.63c0 1.706-1.311 3.237-3.083 3.353a3.392 3.392 0 01-1.603-.282 3.257 3.257 0 01-1.264-.99c-.365-.47-1.017-.627-1.525-.302L.492 12.232a1.065 1.065 0 00-.455.611c-.069.25-.04.517.08.748l7.078 14.034h20.949l7.078-14.036a1.03 1.03 0 00.08-.748 1.07 1.07 0 00-.456-.612z" fill="#CCC"/></g><defs><clipPath id="clip0_1_3"><path fill="#fff" d="M0 0h35.339v34H0z"/></clipPath><filter id="filter0_d_1_3" x="-4" y="0" width="43.339" height="42" filterUnits="userSpaceOnUse" color-interpolation-filters="sRGB"><feFlood flood-opacity="0" result="BackgroundImageFix"/><feColorMatrix in="SourceAlpha" values="0 0 0 0 0 0 0 0 0 0 0 0 0 0 0 0 0 0 127 0" result="hardAlpha"/><feOffset dy="4"/><feGaussianBlur stdDeviation="2"/><feComposite in2="hardAlpha" operator="out"/><feColorMatrix values="0 0 0 0 0.941667 0 0 0 0 0.00156957 0 0 0 0 0.00156957 0 0 0 0.25 0"/><feBlend in2="BackgroundImageFix" result="effect1_dropShadow_1_3"/><feBlend in="SourceGraphic" in2="effect1_dropShadow_1_3" result="shape"/></filter></defs></svg>