<svg width="22" height="24" fill="none" xmlns="http://www.w3.org/2000/svg"><path d="M15.563 21v1.875c0 .621-.504 1.125-1.126 1.125H1.688a1.125 1.125 0 01-1.125-1.125V5.625c0-.621.504-1.125 1.125-1.125h3.375v13.875A2.628 2.628 0 007.688 21h7.875zm0-16.125V0H7.686c-.62 0-1.125.504-1.125 1.125v17.25c0 .621.504 1.125 1.125 1.125h12.75c.622 0 1.125-.504 1.125-1.125V6h-4.875a1.128 1.128 0 01-1.125-1.125zm5.67-1.454L18.142.329A1.125 1.125 0 0017.346 0h-.284v4.5h4.5v-.284c0-.298-.118-.585-.329-.795z" fill="#CCC"/></svg>